<?xml version="1.0" encoding="UTF-8" standalone="no"?>
<svg
   height="18"
   viewBox="0 -960 720 720"
   width="18"
   fill="#1f1f1f"
   version="1.1"
   id="svg1"
   sodipodi:docname="image_24dp_1F1F1F_FILL0_wght400_GRAD0_opsz24.svg"
   xmlns:inkscape="http://www.inkscape.org/namespaces/inkscape"
   xmlns:sodipodi="http://sodipodi.sourceforge.net/DTD/sodipodi-0.dtd"
   xmlns="http://www.w3.org/2000/svg"
   xmlns:svg="http://www.w3.org/2000/svg">
  <defs
     id="defs1" />
  <sodipodi:namedview
     id="namedview1"
     pagecolor="#ffffff"
     bordercolor="#000000"
     borderopacity="0.25"
     inkscape:showpageshadow="2"
     inkscape:pageopacity="0.0"
     inkscape:pagecheckerboard="0"
     inkscape:deskcolor="#d1d1d1">
    <inkscape:page
       x="0"
       y="0"
       width="720"
       height="720"
       id="page2"
       margin="0"
       bleed="0" />
  </sodipodi:namedview>
  <path
     d="M 80,-240 Q 47,-240 23.5,-263.5 0,-287 0,-320 V -880 Q 0,-913 23.5,-936.5 47,-960 80,-960 h 560 q 33,0 56.5,23.5 23.5,23.5 23.5,56.5 v 560 q 0,33 -23.5,56.5 Q 673,-240 640,-240 Z m 0,-80 H 640 V -880 H 80 Z m 40,-80 H 600 L 450,-600 330,-440 240,-560 Z m -40,80 v -560 z"
     id="path1"
     style="fill:#000000" />
</svg>
